HIERARCHY
ROOT Hips
{
	OFFSET 0.00000 0.00000 0.00000
	CHANNELS 6 Xposition Yposition Zposition Zrotation Yrotation Xrotation 
	JOINT LHipJoint
	{
		OFFSET 0 0 0
		CHANNELS 3 Zrotation Yrotation Xrotation
		JOINT LeftHip
		{
			OFFSET 1.84395 -1.68683 0.74144
			CHANNELS 3 Zrotation Yrotation Xrotation
			JOINT LeftKnee
			{
				OFFSET 2.27037 -6.23779 0.00000
				CHANNELS 3 Zrotation Yrotation Xrotation
				JOINT LeftAnkle
				{
					OFFSET 2.56918 -7.05877 0.00000
					CHANNELS 3 Zrotation Yrotation Xrotation
					JOINT LeftToe
					{
						OFFSET 0.22276 -0.61202 1.71784
						CHANNELS 3 Zrotation Yrotation Xrotation
						End Site
						{
							OFFSET 0.00000 -0.00000 0.91613
						}
					}
				}
			}
		}
	}
	JOINT RHipJoint
	{
		OFFSET 0 0 0
		CHANNELS 3 Zrotation Yrotation Xrotation
		JOINT RightHip
		{
			OFFSET -1.76833 -1.68684 0.74144
			CHANNELS 3 Zrotation Yrotation Xrotation
			JOINT RightKnee
			{
				OFFSET -2.49360 -6.85110 0.00000
				CHANNELS 3 Zrotation Yrotation Xrotation
				JOINT RightAnkle
				{
					OFFSET -2.55538 -7.02085 0.00000
					CHANNELS 3 Zrotation Yrotation Xrotation
					JOINT RightToe
					{
						OFFSET -0.21516 -0.59115 1.68050
						CHANNELS 3 Zrotation Yrotation Xrotation
						End Site
						{
							OFFSET -0.00000 -0.00000 0.89604
						}
					}
				}
			}
		}
	}
	JOINT lowerback
	{
		OFFSET 0 0 0
		CHANNELS 3 Zrotation Yrotation Xrotation
		JOINT Chest
		{
			OFFSET 0.06382 1.72312 -0.19613
			CHANNELS 3 Zrotation Yrotation Xrotation
			JOINT Chest2
			{
				OFFSET -0.00055 1.73507 0.23859
				CHANNELS 3 Zrotation Yrotation Xrotation
				JOINT lowerneck
				{
					OFFSET 0 0 0
					CHANNELS 3 Zrotation Yrotation Xrotation
					JOINT Neck
					{
						OFFSET 0.03638 1.65562 0.09633
						CHANNELS 3 Zrotation Yrotation Xrotation
						JOINT Head
						{
							OFFSET 0.06388 1.62807 -0.32386
							CHANNELS 3 Zrotation Yrotation Xrotation
							End Site
							{
								OFFSET 0.00995 1.67644 -0.12021
							}
						}
					}
				}
				JOINT LeftCollar
				{
					OFFSET 0 0 0
					CHANNELS 3 Zrotation Yrotation Xrotation
					JOINT LeftShoulder
					{
						OFFSET 3.09648 1.42991 0.28122
CHANNELS 3 Zrotation Xrotation Yrotation
						JOINT LeftElbow
						{
OFFSET 0 -5.118780 -0.000000
CHANNELS 3 Zrotation Xrotation Yrotation
							JOINT LeftWrist
							{
OFFSET 0 -3.599710 0.000000
CHANNELS 3 Zrotation Xrotation Yrotation
								JOINT lhand
								{
									OFFSET 0 0 0
CHANNELS 3 Zrotation Xrotation Yrotation
									JOINT LFingers
									{
OFFSET 0 -0.628770 0.000000
CHANNELS 3 Zrotation Xrotation Yrotation
										End Site
										{
OFFSET 0 -0.506930 0.000000
										}
									}
								}
								JOINT LThumb
								{
OFFSET 0 0.000000 0.000000
CHANNELS 3 Zrotation Xrotation Yrotation
									End Site
									{
OFFSET 0 -0.514670 0.514670
									}
								}
							}
						}
					}
				}
				JOINT RightCollar
				{
					OFFSET 0 0 0
					CHANNELS 3 Zrotation Yrotation Xrotation
					JOINT RightShoulder
					{
						OFFSET -3.33565 1.14597 0.05047
CHANNELS 3 Zrotation Xrotation Yrotation
						JOINT RightElbow
						{
OFFSET 0 -5.490200 0.000000
CHANNELS 3 Zrotation Xrotation Yrotation
							JOINT RightWrist
							{
OFFSET 0 -3.206590 -0.000000
CHANNELS 3 Zrotation Xrotation Yrotation
								JOINT rhand
								{
									OFFSET 0 0 0
CHANNELS 3 Zrotation Xrotation Yrotation
									JOINT RFingers
									{
OFFSET 0 -0.691880 0.000000
CHANNELS 3 Zrotation Xrotation Yrotation
										End Site
										{
OFFSET 0 -0.557810 0.000000
										}
									}
								}
								JOINT RThumb
								{
OFFSET 0 0.000000 0.000000
CHANNELS 3 Zrotation Xrotation Yrotation
									End Site
									{
OFFSET 0 -0.566330 0.566330
									}
								}
							}
						}
					}
				}
			}
		}
	}
}
MOTION
Frames: 12
Frame Time: 0.008333333333333333
0.228500 17.469500 8.370800 -8.445500 -3.505600 9.433600 0.000000 0.000000 0.000000 -19.274600 -39.170500 23.664600 0.073200 -1.745800 -4.803600 -5.202700 44.589900 -47.315700 1.123400 6.732400 18.925100 0.000000 0.000000 0.000000 25.252200 27.567800 7.065500 -0.011800 -0.700300 1.924400 0.895600 -20.413000 -20.564500 -0.008100 0.580200 -1.594200 6.153400 1.813700 -1.331400 0.411800 2.738700 -10.156200 -3.178600 0.840700 -9.794700 0.157200 -7.063600 -3.272000 11.159300 -12.441700 22.687200 2.645000 -4.975000 8.302100 -0.000000 0.000000 0.000000 0.116000 12.437700 -1.912700 14.035700 -22.785800 2.841900 -17.933600 7.551300 4.244000 0.000000 0.000000 0.000000 -7.125000 0.000000 0.000000 -31.800000 24.830500 -18.399900 -0.000000 0.000000 0.000000 4.568600 12.585800 -0.475500 -14.388600 -23.287500 -2.980000 11.891600 33.208800 34.026300 0.000000 0.000000 0.000000 7.125000 0.000000 -0.000000 48.413800 57.192500 -17.130700
0.229554 17.470994 8.368154 -8.364105 -3.543601 9.463595 0.000000 0.000000 0.000000 -19.336631 -39.181698 23.597657 0.072724 -1.739575 -4.786435 -5.158258 44.547557 -47.372811 1.148949 6.805917 19.141776 0.000000 0.000000 0.000000 25.115488 27.623882 7.007683 -0.011739 -0.699311 1.921831 0.880919 -20.368531 -20.650479 -0.003444 0.362264 -0.995430 5.732971 1.102785 -1.416285 1.379711 1.821645 -10.009490 -1.849738 0.479351 -9.704184 -2.141453 -6.779152 -3.536416 10.584926 -11.713691 22.983364 2.886569 -4.853021 8.481568 0.000000 0.000000 0.000000 -2.184602 13.048036 -2.120925 13.007249 -21.297645 2.455990 0.211705 15.615698 11.654554 0.000000 0.000000 0.000000 -7.125000 0.000000 0.000000 -18.651165 18.603158 -12.411778 0.000000 0.000000 0.000000 2.701511 12.216295 2.133634 -14.305990 -23.170431 -2.947466 12.058616 32.927884 34.082909 0.000000 0.000000 0.000000 7.125000 0.000000 0.000000 48.620152 57.196233 -17.234664
0.218387 17.482241 8.399770 -7.567020 -3.499274 9.992382 0.000000 0.000000 0.000000 -20.185330 -39.880361 23.348542 0.068274 -1.685779 -4.638000 -4.993780 44.600956 -48.047336 1.195750 6.938405 19.533048 0.000000 0.000000 0.000000 24.014271 27.974622 6.774289 -0.007600 -0.564177 1.550219 0.929991 -20.731575 -20.834272 -0.010099 -0.647249 1.778592 4.443957 0.484434 -2.671015 2.000980 0.893680 -9.921024 -0.403617 0.176937 -8.937872 -4.039169 -6.599967 -3.885654 9.934977 -11.154907 23.471125 3.024103 -4.780388 8.729743 0.000000 0.000000 0.000000 -3.830865 14.043089 -4.685631 12.943094 -21.203752 2.432647 14.595964 17.492557 10.387609 0.000000 0.000000 0.000000 -7.125000 0.000000 0.000000 -8.806967 19.319563 -5.461595 0.000000 0.000000 0.000000 0.874557 11.454023 4.743397 -13.661015 -22.247949 -2.698412 10.731720 33.042906 33.752129 0.000000 0.000000 0.000000 7.125000 0.000000 0.000000 47.103038 57.249278 -16.576929
0.221346 17.481592 8.399385 -7.500337 -3.497315 10.010656 0.000000 0.000000 0.000000 -20.237778 -39.848268 23.276221 0.067639 -1.677916 -4.616333 -4.933037 44.500605 -48.030935 1.213424 6.987763 19.679019 0.000000 0.000000 0.000000 23.882658 27.863871 6.671015 -0.007800 -0.569546 1.565170 0.924332 -20.653848 -20.733943 -0.009330 -0.622799 1.711497 4.512358 0.578996 -2.790276 1.869727 1.004775 -9.888617 -0.585517 0.222573 -8.824064 -4.497850 -7.063667 -3.881269 9.275654 -11.629358 23.709213 2.826301 -5.097053 8.836454 0.000000 0.000000 0.000000 -3.596718 13.989088 -4.906007 12.981022 -21.259368 2.446384 14.102481 17.367261 11.241799 0.000000 0.000000 0.000000 -7.125000 0.000000 0.000000 -9.136062 18.480471 -5.843917 0.000000 0.000000 0.000000 1.006004 11.348866 4.669171 -13.727415 -22.343633 -2.723633 10.509608 32.981472 33.780772 0.000000 0.000000 0.000000 7.125000 0.000000 0.000000 46.936483 57.318260 -16.581331
0.219346 17.481177 8.396886 -7.500590 -3.487786 9.991114 0.000000 0.000000 0.000000 -20.122875 -39.726213 23.124965 0.067177 -1.672577 -4.601574 -5.050964 44.535790 -47.712483 1.170543 6.867522 19.323509 0.000000 0.000000 0.000000 23.913736 27.926662 6.709160 -0.008000 -0.578877 1.590631 0.932523 -20.734699 -20.810291 -0.007857 -0.572641 1.573507 4.825692 0.697552 -2.078908 1.679334 1.226749 -10.318531 -0.977766 0.274275 -9.713939 -5.564104 -7.715714 -3.917887 8.588537 -12.373144 24.651853 2.683168 -5.578929 9.258409 0.000000 0.000000 0.000000 -3.285326 14.682027 -5.444069 13.061052 -21.376595 2.475480 13.894948 17.127622 11.576677 0.000000 0.000000 0.000000 -7.125000 0.000000 0.000000 -9.274611 18.153517 -6.002600 0.000000 0.000000 0.000000 1.232915 11.975318 4.073367 -13.667776 -22.257789 -2.700977 10.301873 33.507859 33.518486 0.000000 0.000000 0.000000 7.125000 0.000000 0.000000 46.478871 57.173553 -16.195377
0.218925 17.480636 8.393104 -7.490981 -3.451383 10.009801 0.000000 0.000000 0.000000 -20.050851 -39.671893 23.014054 0.067864 -1.680189 -4.622675 -5.139044 44.575323 -47.501284 1.140830 6.782765 19.073370 0.000000 0.000000 0.000000 23.851695 27.843000 6.608719 -0.008264 -0.587003 1.613031 0.919732 -20.636713 -20.753477 -0.006611 -0.518908 1.425980 4.832415 0.667846 -2.109769 1.703214 1.184667 -10.271350 -0.953403 0.256250 -9.644846 -6.295000 -8.133196 -4.059996 7.954582 -12.757986 25.049521 2.531540 -5.871478 9.465818 0.000000 0.000000 0.000000 -3.368202 14.490958 -5.080558 13.042747 -21.349875 2.468839 14.228325 17.301529 11.430856 0.000000 0.000000 0.000000 -7.125000 0.000000 0.000000 -9.044561 18.280741 -5.824060 0.000000 0.000000 0.000000 1.101669 11.828918 4.174703 -13.672950 -22.265196 -2.702936 10.549283 33.206042 33.679907 0.000000 0.000000 0.000000 7.125000 0.000000 0.000000 46.865983 57.236812 -16.450813
0.213224 17.480993 8.389040 -7.556865 -3.299179 10.003629 0.000000 0.000000 0.000000 -19.914609 -39.769622 23.007932 0.068346 -1.687018 -4.641454 -5.074025 44.490069 -47.532831 1.164674 6.850839 19.274271 0.000000 0.000000 0.000000 24.007523 27.917972 6.704946 -0.007823 -0.571751 1.571071 0.950568 -20.867038 -20.878747 -0.011793 -0.701722 1.928432 4.829760 0.629908 -2.134756 1.750825 1.133664 -10.221989 -0.898286 0.235964 -9.577860 -6.993449 -8.597767 -4.293339 7.325136 -13.213516 25.545073 2.357922 -6.191025 9.733145 0.000000 0.000000 0.000000 -3.410848 14.456948 -5.595094 13.270282 -21.681980 2.552310 13.662543 17.833229 9.279388 0.000000 0.000000 0.000000 -7.125000 0.000000 0.000000 -9.501156 20.494086 -5.649843 0.000000 0.000000 0.000000 1.046361 11.809154 4.206914 -13.713301 -22.323333 -2.718254 10.579389 33.131237 33.854055 0.000000 0.000000 0.000000 7.125000 0.000000 0.000000 47.075181 57.355797 -16.691799
0.209685 17.480100 8.385805 -7.566934 -3.297975 9.994681 0.000000 0.000000 0.000000 -20.025257 -39.956834 23.190535 0.068460 -1.688554 -4.645592 -5.045888 44.583643 -47.835334 1.183641 6.904598 19.433014 0.000000 0.000000 0.000000 24.025287 27.910226 6.675587 -0.008210 -0.585626 1.609096 0.942274 -20.827908 -20.893813 -0.010230 -0.654196 1.797618 4.775304 0.617980 -2.121716 1.741744 1.113040 -10.156823 -0.877065 0.232110 -9.512632 -7.714903 -9.137838 -4.374346 6.906309 -13.809359 25.812877 2.245716 -6.568869 9.923203 0.000000 0.000000 0.000000 -3.375251 14.457810 -5.805014 13.333083 -21.773389 2.575561 13.778358 17.694355 8.845235 0.000000 0.000000 0.000000 -7.125000 0.000000 0.000000 -9.433660 20.928901 -5.515457 0.000000 0.000000 0.000000 1.053030 11.688370 4.207462 -13.680810 -22.276555 -2.705940 10.546853 33.231641 33.756133 0.000000 0.000000 0.000000 7.125000 0.000000 0.000000 46.943491 57.292335 -16.553612
0.207657 17.480203 8.381328 -7.507526 -3.262133 10.029673 0.000000 0.000000 0.000000 -20.022106 -39.962860 23.064959 0.066900 -1.669000 -4.591703 -5.254966 44.737909 -47.470969 1.108790 6.690102 18.800375 0.000000 0.000000 0.000000 23.936865 27.933845 6.621242 -0.008197 -0.585158 1.607847 0.953437 -20.867254 -20.843575 -0.013643 -0.753690 2.071324 4.694916 0.595524 -2.130973 1.714946 1.074274 -10.079945 -0.859070 0.221044 -9.421598 -8.340238 -9.700969 -4.603606 6.511621 -14.416613 25.809979 2.114123 -6.939553 10.041227 0.000000 0.000000 0.000000 -3.384658 14.376047 -5.654438 13.302854 -21.729339 2.564350 13.625775 17.815397 8.923892 0.000000 0.000000 0.000000 -7.125000 0.000000 0.000000 -9.539980 20.856091 -5.595242 0.000000 0.000000 0.000000 1.080061 11.583910 4.264074 -13.687773 -22.286650 -2.708565 10.480297 33.341214 33.526696 0.000000 0.000000 0.000000 7.125000 0.000000 0.000000 46.645620 57.140925 -16.233674
0.207108 17.479247 8.378271 -7.482525 -3.279660 10.049302 0.000000 0.000000 0.000000 -19.988968 -39.930370 22.981622 0.066578 -1.665134 -4.581074 -5.100036 44.558936 -47.597408 1.154665 6.822365 19.190150 0.000000 0.000000 0.000000 23.877568 27.905572 6.564481 -0.008008 -0.578694 1.590251 0.958110 -20.847939 -20.743807 -0.007926 -0.574578 1.578829 4.658727 0.565694 -2.121745 1.713316 1.031122 -10.030106 -0.838573 0.204129 -9.372907 -9.036116 -10.298375 -5.124669 5.991643 -15.025484 26.033264 1.923955 -7.316834 10.295766 0.000000 0.000000 0.000000 -3.382863 14.368597 -5.421703 13.252969 -21.656803 2.545932 13.719651 17.848991 9.290426 0.000000 0.000000 0.000000 -7.125000 0.000000 0.000000 -9.459596 20.480321 -5.628053 0.000000 0.000000 0.000000 1.064008 11.508475 4.517493 -13.673006 -22.265239 -2.702918 10.650885 33.085272 33.608358 0.000000 0.000000 0.000000 7.125000 0.000000 0.000000 46.881432 57.163034 -16.369722
0.207879 17.480450 8.375636 -7.493841 -3.294407 10.031404 0.000000 0.000000 0.000000 -19.975382 -39.897944 22.979194 0.066600 -1.665279 -4.581529 -5.234325 44.665893 -47.378800 1.123375 6.732290 18.924708 0.000000 0.000000 0.000000 23.891215 27.896743 6.565614 -0.008064 -0.580899 1.596391 0.943543 -20.803782 -20.825675 -0.010279 -0.653728 1.796469 4.634448 0.511597 -2.087718 1.788316 0.962675 -9.978541 -0.742105 0.177320 -9.339757 -9.673416 -10.796582 -5.566893 5.341464 -15.467874 26.364996 1.698078 -7.627240 10.546811 0.000000 0.000000 0.000000 -3.534119 14.349785 -5.086148 13.228121 -21.620556 2.536714 13.420517 18.129340 9.183099 0.000000 0.000000 0.000000 -7.125000 0.000000 0.000000 -9.676904 20.603066 -5.733848 0.000000 0.000000 0.000000 1.034308 11.436176 4.588743 -13.675556 -22.268928 -2.703914 10.570956 33.054467 33.771681 0.000000 0.000000 0.000000 7.125000 0.000000 0.000000 46.981180 57.298366 -16.578539
0.209400 17.480579 8.373783 -7.457717 -3.289778 9.985957 0.000000 0.000000 0.000000 -20.023772 -39.825300 22.969471 0.066224 -1.660508 -4.568350 -5.200060 44.591129 -47.327665 1.138155 6.775186 19.051020 0.000000 0.000000 0.000000 23.897365 27.959310 6.682051 -0.007800 -0.571148 1.569383 0.958506 -20.888554 -20.828182 -0.013442 -0.746941 2.052734 4.571805 0.430674 -2.064754 1.869624 0.856475 -9.924013 -0.615294 0.135373 -9.298341 -10.357884 -11.297138 -6.093852 4.696225 -15.900351 26.831654 1.466081 -7.934903 10.871582 0.000000 0.000000 0.000000 -3.700433 14.242766 -4.706974 13.135209 -21.484992 2.502614 13.327079 18.217232 9.697200 0.000000 0.000000 0.000000 -7.125000 0.000000 0.000000 -9.725067 20.087549 -5.877447 0.000000 0.000000 0.000000 0.911577 11.383414 4.790285 -13.672211 -22.264174 -2.702680 10.436678 33.325571 33.537743 0.000000 0.000000 0.000000 7.125000 0.000000 0.000000 46.618363 57.158285 -16.241809
